# xmcd CD database file
#
# Track frame offsets:
#	150
#	13388
#	28837
#	47637
#	68067
#	80923
#	98279
#	114219
#	133158
#	143517
#	158878
#	169174
#	180264
#	199036
#	218409
#	231876
#
# Disc length: 3269 seconds
#
# Revision: 2
# Processed by: cddbd v1.5.1PL2 Copyright (c) Steve Scherf et al.
# Submitted via: CDex 1.51
#
DISCID=ce0cc310
DTITLE=Texas Lightning - Meanwhile, back at the Ranch
DYEAR=2005
DGENRE=Country
TTITLE0=Bad case of loving you
TTITLE1=Like a virgin
TTITLE2=Kiss
TTITLE3=Over the mountains
TTITLE4=C`est la Vie
TTITLE5=Highway to hell
TTITLE6=Dancing Queen
TTITLE7=Man in the mirror
TTITLE8=Norwegian wood
TTITLE9=Smoke,smoke smoke (that cigarette)
TTITLE10=Walking after midnight
TTITLE11=Raindrops keep falling on my head
TTITLE12=Walk on the wild side
TTITLE13=Blue bayou
TTITLE14=No No Never
TTITLE15=Waterloo
EXTD=YEAR: 2005
EXTT0=
EXTT1=
EXTT2=
EXTT3=
EXTT4=
EXTT5=
EXTT6=
EXTT7=
EXTT8=
EXTT9=
EXTT10=
EXTT11=
EXTT12=
EXTT13=
EXTT14=
EXTT15=
PLAYORDER=
